HIERARCHY
ROOT Hips
{
	OFFSET -211.153198 91.653587 -35.738949
	CHANNELS 6 Xposition Yposition Zposition Zrotation Yrotation Xrotation 
	JOINT LeftUpLeg
	{
		OFFSET 0.103455 1.857827 10.548507
		CHANNELS 3 Zrotation Yrotation Xrotation
		JOINT LeftLeg
		{
			OFFSET 43.500000 -0.000031 0.000008
			CHANNELS 3 Zrotation Yrotation Xrotation
			JOINT LeftFoot
			{
				OFFSET 42.372192 0.000011 -0.000014
				CHANNELS 3 Zrotation Yrotation Xrotation
				JOINT LeftToe
				{
					OFFSET 17.299997 -0.000002 0.000013
					CHANNELS 3 Zrotation Yrotation Xrotation
					End Site
					{
						OFFSET 0.000000 0.000000 0.000000
					}
				}
			}
		}
	}
	JOINT RightUpLeg
	{
		OFFSET 0.103457 1.857826 -10.548499
		CHANNELS 3 Zrotation Yrotation Xrotation
		JOINT RightLeg
		{
			OFFSET 43.500046 -0.000019 0.000015
			CHANNELS 3 Zrotation Yrotation Xrotation
			JOINT RightFoot
			{
				OFFSET 42.372261 -0.000004 0.000013
				CHANNELS 3 Zrotation Yrotation Xrotation
				JOINT RightToe
				{
					OFFSET 17.299992 -0.000006 0.000004
					CHANNELS 3 Zrotation Yrotation Xrotation
					End Site
					{
						OFFSET 0.000000 0.000000 0.000000
					}
				}
			}
		}
	}
	JOINT Spine
	{
		OFFSET 6.901968 -2.603730 -0.000002
		CHANNELS 3 Zrotation Yrotation Xrotation
		JOINT Spine1
		{
			OFFSET 12.588100 -0.000001 0.000009
			CHANNELS 3 Zrotation Yrotation Xrotation
			JOINT Spine2
			{
				OFFSET 12.343201 0.000005 -0.000005
				CHANNELS 3 Zrotation Yrotation Xrotation
				JOINT Neck
				{
					OFFSET 25.832893 -0.000008 -0.000006
					CHANNELS 3 Zrotation Yrotation Xrotation
					JOINT Head
					{
						OFFSET 11.766606 0.000005 0.000008
						CHANNELS 3 Zrotation Yrotation Xrotation
						End Site
						{
							OFFSET 0.000000 0.000000 0.000000
						}
					}
				}
				JOINT LeftShoulder
				{
					OFFSET 19.745903 -1.480373 6.000100
					CHANNELS 3 Zrotation Yrotation Xrotation
					JOINT LeftArm
					{
						OFFSET 11.284123 -0.000007 -0.000024
						CHANNELS 3 Zrotation Yrotation Xrotation
						JOINT LeftForeArm
						{
							OFFSET 33.000053 0.000004 0.000036
							CHANNELS 3 Zrotation Yrotation Xrotation
							JOINT LeftHand
							{
								OFFSET 25.200006 0.000021 -0.000003
								CHANNELS 3 Zrotation Yrotation Xrotation
								End Site
								{
									OFFSET 0.000000 0.000000 0.000000
								}
							}
						}
					}
				}
				JOINT RightShoulder
				{
					OFFSET 19.746101 -1.480381 -6.000079
					CHANNELS 3 Zrotation Yrotation Xrotation
					JOINT RightArm
					{
						OFFSET 11.284133 -0.000015 -0.000008
						CHANNELS 3 Zrotation Yrotation Xrotation
						JOINT RightForeArm
						{
							OFFSET 33.000099 0.000016 0.000006
							CHANNELS 3 Zrotation Yrotation Xrotation
							JOINT RightHand
							{
								OFFSET 25.199781 0.000142 0.000425
								CHANNELS 3 Zrotation Yrotation Xrotation
								End Site
								{
									OFFSET 0.000000 0.000000 0.000000
								}
							}
						}
					}
				}
			}
		}
	}
}
MOTION
Frames: 7
Frame Time: 0.033333
-211.153198 91.653587 35.738949 92.222082 -8.408381999999994 -91.21838499999998 -169.440574 -4.125312000000002 176.219359 -10.114872 -4.447735000000001 -7.779177000000001 79.25866299999998 5.411643000000001 -0.7970380000000007 21.454560000000008 0.003108000000000001 1.5000000000000056e-05 -170.142594 -0.21480099999999996 -177.561901 -7.962123999999999 1.271036 7.842605000000001 73.76584500000004 -4.338777000000001 4.445076000000002 21.454551000000002 -0.0030940000000000004 -1.0000000000000006e-06 7.054458000000002 0.4786790000000001 -0.041421 4.105801 0.9576680000000001 -0.07024100000000003 3.7876599999999985 0.957421 -0.07598999999999999 -0.4786049999999999 5.007815 1.887721 -15.177876000000003 -10.299241000000002 6.4268089999999995 -126.23132200000015 -83.10334200000007 -55.87585099999995 -14.97354 11.070518 -13.61468 -21.039481 -14.982733999999999 1.1089029999999993 9.129127999999998 -9.673027 14.016050999999996 -143.98239600000056 88.86013300000003 37.79149800000004 -17.751501 -13.547031 14.705952 -24.263095999999994 15.877532999999994 -1.1953999999999994 15.327303000000004 5.427472000000002 -41.859535000000015
-211.209396 91.655151 35.775379 92.233222 -8.394194999999993 -91.243589 -169.49427200000002 -4.102791 176.220506 -10.154242 -4.46316 -7.793790999999998 79.269297 5.4308819999999995 -0.7598699999999996 21.454562 0.003116 1.7000000000000017e-05 -170.189108 -0.187302 -177.540686 -7.972414999999996 1.2610679999999994 7.8146029999999955 73.73330599999998 -4.312563 4.463003999999998 21.454551000000002 -0.003089000000000001 1.0000000000000482e-06 7.054457000000002 0.47867800000000005 -0.041414 4.1058 0.95766 -0.06611299999999999 3.787656000000001 0.9574110000000002 -0.071873 -0.44842600000000005 5.007829000000001 1.8847060000000004 -15.156002000000004 -10.299242 6.418659000000003 -126.3534729999999 -83.112481 -55.75222500000009 -14.973538999999997 11.025632000000003 -13.614672 -21.048819 -14.982733999999999 1.1089069999999996 9.129136000000003 -9.655124999999998 14.011506999999998 -146.17752300000004 88.8987230000007 35.591539000000466 -17.72897 -13.540286999999998 14.740501000000004 -24.296636999999997 15.882224999999998 -1.1953909999999996 15.319333999999998 5.447449 -41.944932999999985
-211.314407 91.65863 35.843029 92.24943000000002 -8.366051 -91.28912600000001 -169.587737 -4.05389 176.204851 -10.210914 -4.484353 -7.810741 79.27872300000001 5.459629 -0.6900199999999996 21.454557 0.0031010000000000005 1.699999999999995e-05 -170.277832 -0.13310099999999997 -177.49221899999998 -7.991875000000001 1.239429 7.759233000000003 73.672039 -4.261442000000001 4.495974000000001 21.454550999999995 -0.0030769999999999994 9.999999999998437e-07 7.054452000000001 0.478669 -0.036956000000000024 4.105806 0.9576639999999996 -0.05707699999999997 3.787658000000002 0.9574140000000002 -0.06287500000000001 -0.3894150000000002 5.005072000000002 1.8775470000000003 -15.121920999999997 -10.301938000000002 6.405699000000001 -126.64338700000017 -83.12973400000011 -55.45894700000007 -14.97354 10.931468000000002 -13.614685999999999 -21.062020000000004 -14.970863 1.1089010000000008 9.125301999999996 -9.659700999999998 13.986740000000003 -149.832002 88.95413700000013 31.929453999999836 -17.719680999999998 -13.511261999999999 14.739680999999994 -24.316552999999992 15.911332000000002 -1.1953900000000004 15.363240000000003 5.432325999999999 -41.933069
-211.421707 91.662277 35.910679 92.25972999999998 -8.329497 -91.333044 -169.683769 -3.996706000000001 176.175809 -10.255535000000005 -4.500847 -7.819548000000004 79.28166 5.483235000000001 -0.6179620000000003 21.454558000000002 0.0031080000000000005 1.6999999999999895e-05 -170.381186 -0.073109 -177.41924499999996 -8.024088999999998 1.21182 7.690859999999999 73.616455 -4.200931999999999 4.5290680000000005 21.454553 -0.0030970000000000004 0.0 7.054459000000001 0.478668 -0.031145999999999993 4.102416999999999 0.9576660000000001 -0.04546199999999999 3.784265 0.9574069999999999 -0.05125500000000001 -0.329835 5.017933 1.8647570000000002 -15.089490000000003 -10.321434 6.395795000000001 -126.93570499999996 -83.15550399999988 -55.16283799999989 -14.973542 10.838359 -13.614686000000003 -21.072242000000003 -14.948554000000003 1.1089009999999997 9.117826999999998 -9.688362000000001 13.961843999999997 -152.64562999999967 88.98547999999913 29.110542999999748 -17.740959999999998 -13.454572999999998 14.703580000000004 -24.305247 15.926009999999998 -1.1954010000000002 15.398896999999998 5.4105560000000015 -41.84741799999999
-211.529099 91.66555 35.977421 92.26826700000002 -8.288521 -91.37409999999998 -169.78206899999998 -3.939503 176.125198 -10.298071 -4.515763999999999 -7.814029 79.28494500000001 5.497630000000002 -0.5425329999999994 21.45456 0.003108000000000001 1.6999999999999993e-05 -170.49209500000003 -0.011803000000000024 -177.336231 -8.06441 1.1829799999999997 7.618281999999999 73.56588400000001 -4.1374460000000015 4.562274 21.454551 -0.0030900000000000003 1.0000000000001156e-06 7.054463 0.4786729999999999 -0.025031999999999995 4.096069000000002 0.9576599999999998 -0.03329499999999998 3.7779180000000006 0.9574110000000003 -0.03908799999999998 -0.26996 5.050668 1.8481159999999994 -15.057401 -10.350417999999996 6.388808999999999 -127.13374000000003 -83.19337700000003 -54.96108099999999 -14.973539 10.762721 -13.614673000000002 -21.077462000000008 -14.921226000000006 1.1089160000000002 9.110886000000004 -9.737304 13.944754 -155.2202559999999 89.00142200000036 26.531945000000253 -17.769383 -13.378532 14.674856000000004 -24.294290000000007 15.934883000000003 -1.1953900000000008 15.389559000000004 5.402045000000002 -41.816884
-211.634796 91.667877 36.041359 92.27990600000003 -8.246954000000002 -91.411345 -169.881121 -3.891402999999999 176.037648 -10.347797 -4.531461 -7.783921999999999 79.29560699999999 5.496045 -0.4617480000000006 21.454558000000002 0.003099 1.4999999999999972e-05 -170.601706 0.046093999999999996 -177.259282 -8.105495000000001 1.158297 7.551384000000001 73.51893399999997 -4.078092999999997 4.595557999999999 21.454550999999995 -0.0031039999999999996 -9.999999999999288e-07 7.050303 0.4786750000000001 -0.019687 4.087799000000002 0.9576550000000004 -0.02266000000000001 3.7696559999999986 0.9574209999999999 -0.02844799999999999 -0.21787600000000001 5.105229999999998 1.8272159999999995 -15.012903000000001 -10.382324000000004 6.381368000000002 -127.194556 -83.242534 -54.896716999999995 -14.973542000000005 10.709529000000002 -13.614681000000001 -21.077539999999996 -14.896981999999998 1.1089080000000004 9.114466 -9.746652999999998 13.957142999999997 -157.75294499999944 89.00849799999926 23.995219999999815 -17.796400999999996 -13.2953 14.661430999999999 -24.294464999999988 15.946663 -1.1954000000000005 15.344889 5.378783 -41.824349
-211.734802 91.668694 36.10141 92.302357 -8.205073999999996 -91.44424599999999 -169.98647 -3.868893999999999 175.881128 -10.422350000000002 -4.553159999999999 -7.70864 79.32348799999998 5.465170999999999 -0.37103000000000047 21.454562 0.003106 1.6000000000000016e-05 -170.705279 0.089491 -177.192183 -8.140304000000004 1.1368330000000004 7.492699 73.47350599999999 -4.024852 4.6283840000000005 21.454553 -0.0031030000000000003 -1.000000000000148e-06 7.044916000000001 0.478669 -0.016175 4.077062000000001 0.9576569999999999 -0.015649000000000003 3.7589259999999998 0.957418 -0.021446999999999997 -0.198202 5.169468000000002 1.799461000000001 -14.916008000000001 -10.402521000000002 6.360319 -127.08527299999997 -83.30004499999998 -55.00349299999995 -14.973544000000002 10.685867999999996 -13.612038999999996 -21.074088 -14.885624999999994 1.1089169999999997 9.133293999999996 -9.674222999999996 13.991092999999998 -160.41899999999978 89.0188189999995 21.32472100000013 -17.813233999999998 -13.220450999999999 14.673241000000004 -24.310785 15.951003999999996 -1.1954019999999996 15.322159999999997 5.371009000000001 -41.838518
